<?xml version="1.0" encoding="UTF-8"?>
<svg xmlns="http://www.w3.org/2000/svg" xmlns:xlink="http://www.w3.org/1999/xlink" viewBox="60 110 330 240">
<path fill-rule="nonzero" fill="rgb(98.039246%, 84.313965%, 0%)" fill-opacity="1" d="M 459.039062 -9.035156 L 458.804688 457.199219 L 458.582031 460.539062 C 363.460938 460.800781 266.714844 460.785156 171.902344 460.507812 C 168.605469 460.585938 165.316406 460.6875 162.03125 460.8125 C 104.632812 460.742188 47.03125 460.664062 -10.769531 460.582031 L -11.035156 460.113281 L -11.035156 -9.039062 Z M 459.039062 -9.035156 "/>
<path fill-rule="nonzero" fill="rgb(100%, 97.647095%, 49.803162%)" fill-opacity="1" d="M 459.039062 -9.035156 L 459.035156 461.039062 L -11.039062 461.03125 L -11.035156 460.113281 L -5.664062 460.503906 C -3.339844 459.78125 3.191406 460.574219 7.8125 460.363281 C 10.222656 460.25 12.207031 460.070312 14.667969 460.402344 C 15.796875 460.554688 17.058594 460.125 18.421875 460.398438 C 22.792969 461.269531 27.523438 459.328125 34.382812 460.570312 L 41.214844 460.316406 C 45.046875 460.175781 49.402344 460.675781 53.628906 460.515625 L 57.378906 460.371094 C 60.988281 460.644531 64.28125 460.734375 67.9375 460.128906 L 72.703125 460.316406 L 94.039062 460.273438 C 96.179688 460.269531 97.855469 460.230469 100.066406 460.316406 L 104.355469 460.484375 L 114.527344 460.324219 C 115.714844 460.304688 116.46875 460.414062 117.617188 460.417969 L 128.851562 460.476562 L 137.773438 460.53125 L 161.996094 460.589844 C 164.027344 459.972656 166.011719 459.738281 168.050781 460.746094 C 171.113281 459.3125 174.332031 460.34375 177.28125 460.308594 L 190.097656 460.15625 L 199.398438 460.15625 L 204.777344 460.417969 L 216.597656 460.398438 C 218.480469 460.398438 219.824219 460.4375 221.78125 460.433594 L 226.277344 460.425781 L 237.214844 460.453125 C 238.375 460.457031 239.515625 459.703125 240.722656 460.402344 C 241.75 460.996094 242.863281 460.207031 243.824219 460.210938 L 255.636719 460.25 C 257.03125 460.257812 257.972656 460.257812 259.40625 460.265625 L 269.042969 460.300781 C 271.75 460.308594 274.007812 460.816406 276.878906 460.15625 L 281.125 460.3125 L 307.886719 460.21875 C 311.480469 460.207031 314.867188 460.320312 318.472656 460.328125 L 322.84375 460.339844 C 326.355469 460.835938 330.089844 460.445312 333.664062 460.425781 L 337.480469 460.398438 C 339.554688 460.386719 341.894531 459.566406 344.078125 460.316406 C 346.792969 461.242188 351.773438 459.359375 357.03125 460.261719 C 361.894531 461.097656 367.195312 459.398438 373.09375 460.300781 C 375.910156 460.734375 378.253906 460.28125 380.964844 460.351562 L 386.488281 460.496094 L 392.527344 460.292969 L 405.574219 460.328125 C 408.363281 460.332031 411.21875 460.453125 413.996094 460.410156 L 418.164062 460.34375 L 422.445312 460.375 L 436.902344 460.410156 L 441.609375 460.554688 C 443.394531 460.613281 445.203125 459.6875 446.988281 460.246094 C 448.800781 460.8125 450.460938 460.480469 452.242188 460.460938 C 454.207031 460.433594 456.125 460.792969 458.128906 460.097656 C 458.433594 459.222656 458.574219 458.496094 458.574219 457.199219 Z M 459.039062 -9.035156 "/>
<path fill-rule="nonzero" fill="rgb(98.823547%, 89.411926%, 0%)" fill-opacity="1" d="M 243.644531 318.449219 L 243.253906 305.582031 L 243.308594 257.625 C 243.476562 257.59375 243.757812 257.789062 243.757812 257.917969 Z M 243.644531 318.449219 "/>
<path fill-rule="nonzero" fill="rgb(0%, 0%, 0%)" fill-opacity="1" d="M 326.257812 311.089844 L 309.496094 325.683594 C 308.882812 326.214844 308.496094 326.652344 307.773438 326.644531 C 307.058594 326.636719 306.613281 326.335938 306.074219 325.65625 L 285.902344 300.132812 L 285.746094 332.316406 C 285.738281 333.234375 285.023438 333.828125 284.105469 333.945312 L 257.988281 333.96875 C 256.90625 333.96875 256.503906 333.050781 256.503906 331.945312 L 256.523438 221.414062 L 284.121094 221.367188 C 284.984375 221.367188 285.519531 221.796875 285.75 222.644531 L 285.875 272.164062 L 310.296875 241.789062 L 341.328125 241.738281 C 341.960938 241.90625 342.445312 242.191406 342.640625 242.554688 C 342.871094 242.992188 342.957031 243.839844 342.457031 244.460938 L 309.207031 285.582031 L 327.007812 307.953125 C 327.808594 308.957031 327.519531 310.480469 326.257812 311.089844 "/>
<path fill-rule="nonzero" fill="rgb(0%, 0%, 0%)" fill-opacity="1" d="M 282.375 278.339844 C 282.855469 278.707031 283.402344 279.164062 283.925781 279.15625 C 284.578125 279.144531 285.039062 278.847656 285.523438 278.269531 L 311.945312 245.125 L 337.59375 245.183594 L 306.019531 284.074219 C 305.242188 284.894531 305.050781 285.765625 305.601562 286.730469 L 323.46875 309.015625 L 307.988281 322.488281 L 285.578125 293.9375 C 285.042969 293.296875 284.292969 292.875 283.585938 293.035156 C 283.175781 293.125 282.78125 293.613281 282.375 293.90625 C 282.144531 306.019531 281.964844 318.117188 281.835938 330.203125 C 267.296875 330.207031 260.027344 330.210938 260.027344 330.210938 L 260.039062 224.980469 L 281.9375 224.828125 C 281.945312 242.683594 282.089844 260.519531 282.375 278.339844 "/>
<path fill-rule="nonzero" fill="rgb(0%, 0%, 0%)" fill-opacity="1" d="M 282.375 278.339844 C 282.109375 278.132812 281.835938 278.046875 281.835938 277.390625 L 281.800781 225.046875 L 260.273438 225.15625 L 260.253906 330.195312 L 281.835938 330.203125 C 281.964844 329.800781 282.117188 329.808594 282.292969 330.203125 C 282.328125 330.378906 282.140625 330.664062 281.800781 330.664062 L 259.800781 330.65625 L 259.800781 224.621094 L 282.296875 224.613281 Z M 282.375 278.339844 "/>
<path fill-rule="nonzero" fill="rgb(0%, 0%, 0%)" fill-opacity="1" d="M 282.292969 330.203125 L 281.835938 330.203125 L 281.816406 295.300781 C 281.816406 294.503906 281.925781 294.234375 282.375 293.90625 Z M 282.292969 330.203125 "/>
<path fill-rule="nonzero" fill="rgb(0%, 0%, 0%)" fill-opacity="1" d="M 271.5625 157.871094 C 262.878906 158.382812 258.539062 165.164062 258.496094 173.21875 L 258.34375 202.535156 L 233.636719 202.679688 C 232.621094 202.6875 231.960938 202.15625 231.878906 201.078125 L 231.851562 136.542969 C 231.851562 135.585938 232.414062 134.832031 233.367188 134.832031 L 257.171875 134.871094 C 258.089844 137 257.558594 138.730469 257.726562 141.449219 C 263.585938 135.546875 270.945312 133.402344 279.070312 133.464844 C 299.375 133.628906 311.710938 149.757812 311.726562 169.578125 L 311.757812 216.320312 C 311.757812 217.488281 310.847656 218.089844 309.820312 218.089844 L 286.972656 218.089844 C 285.847656 218.089844 285.273438 217.296875 285.265625 216.25 L 284.929688 169.75 C 284.878906 162.378906 278.59375 157.453125 271.5625 157.871094 "/>
<path fill-rule="nonzero" fill="rgb(0%, 0%, 0%)" fill-opacity="1" d="M 308.347656 214.472656 L 289.027344 214.292969 L 289.023438 169.941406 L 288.652344 170.003906 C 286.910156 160.449219 282.121094 154.722656 272.191406 154.59375 C 260.855469 154.441406 254.585938 163.757812 255.050781 175.050781 L 255.082031 199.332031 L 235.5 199.304688 C 235.648438 179.054688 235.65625 158.804688 235.523438 138.550781 L 254.023438 138.570312 L 254.300781 141.074219 L 254.257812 147.050781 C 254.25 147.914062 254.769531 148.570312 255.503906 148.667969 C 257.347656 148.914062 260.648438 139.171875 273.363281 137.171875 C 285.75 135.222656 298.492188 140.421875 304.167969 151.796875 C 306.945312 157.367188 308.199219 163.214844 308.320312 169.554688 Z M 308.347656 214.472656 "/>
<path fill-rule="nonzero" fill="rgb(0%, 0%, 0%)" fill-opacity="1" d="M 254.300781 141.074219 C 253.761719 140.617188 253.785156 139.75 253.804688 138.769531 L 235.929688 138.777344 L 235.5 199.304688 L 235.4375 140.765625 C 235.4375 139.910156 234.855469 139.148438 235.042969 138.324219 L 254.242188 138.308594 Z M 254.300781 141.074219 "/>
<path fill-rule="nonzero" fill="rgb(0%, 0%, 0%)" fill-opacity="1" d="M 308.347656 214.472656 L 288.738281 214.53125 L 288.652344 170.003906 C 288.570312 169.816406 288.761719 169.398438 289.1875 169.628906 L 289.179688 214.058594 Z M 308.347656 214.472656 "/>
<path fill-rule="nonzero" fill="rgb(0%, 0%, 0%)" fill-opacity="1" d="M 243.253906 305.582031 C 243.554688 309.769531 243.683594 314.0625 243.644531 318.449219 C 242.761719 317.953125 242.40625 319.59375 241.9375 319.726562 L 215.289062 319.769531 C 214.457031 319.769531 213.8125 319.097656 213.734375 318.210938 L 213.816406 256.726562 L 242.796875 256.726562 L 242.820312 302.613281 C 242.824219 303.808594 242.628906 304.785156 243.253906 305.582031 "/>
<path fill-rule="nonzero" fill="rgb(0%, 0%, 0%)" fill-opacity="1" d="M 239.671875 260.035156 L 239.714844 316.421875 L 217.089844 316.4375 L 217.046875 260.050781 Z M 239.671875 260.035156 "/>
<path fill-rule="nonzero" fill="rgb(0%, 0%, 0%)" fill-opacity="1" d="M 209.578125 221.257812 L 238.402344 221.273438 L 238.386719 247.894531 L 209.5625 247.878906 Z M 209.578125 221.257812 "/>
<path fill-rule="nonzero" fill="rgb(0%, 0%, 0%)" fill-opacity="1" d="M 235.050781 224.519531 L 235.054688 244.488281 L 212.929688 244.492188 L 212.929688 224.523438 Z M 235.050781 224.519531 "/>
<path fill-rule="nonzero" fill="rgb(1.176453%, 0.784302%, 0.392151%)" fill-opacity="1" d="M 200.992188 222.632812 L 200.984375 332.484375 C 200.066406 333.320312 199.191406 333.953125 198.320312 333.953125 L 175.328125 333.953125 C 174.3125 333.953125 173.589844 333.46875 173.5625 332.441406 L 173.375 325.9375 C 162.773438 335.839844 145.933594 338.03125 132.703125 332.832031 C 119.667969 327.707031 110.199219 316.589844 106.578125 303.046875 C 100.75 281.253906 107.636719 255.914062 128.300781 245.132812 C 141.375 238.3125 159.476562 238.742188 171.460938 248.714844 L 171.519531 223.242188 C 171.523438 221.996094 172.160156 221.199219 173.390625 221.207031 L 181.503906 221.25 L 198.8125 221.261719 C 199.734375 221.261719 200.105469 222.734375 200.992188 222.632812 "/>
<path fill-rule="nonzero" fill="rgb(96.470642%, 86.66687%, 3.137207%)" fill-opacity="1" d="M 200.984375 332.484375 L 200.992188 222.632812 Z M 200.984375 332.484375 "/>
<path fill-rule="nonzero" fill="rgb(0%, 0%, 0%)" fill-opacity="1" d="M 160.722656 329.78125 C 138.394531 337.980469 115.753906 324.257812 109.882812 301.984375 C 104.738281 282.480469 110.328125 259.742188 128.230469 249.109375 C 137.867188 243.382812 149.710938 242.519531 160.183594 246.132812 C 170.859375 249.816406 173.425781 258.714844 174.945312 253.078125 L 174.933594 224.554688 L 196.933594 224.550781 L 196.933594 330.578125 L 176.851562 330.585938 L 176.878906 320.558594 C 174.8125 316.007812 172.21875 325.558594 160.722656 329.78125 "/>
<path fill-rule="nonzero" fill="rgb(1.176453%, 0.784302%, 0.392151%)" fill-opacity="1" d="M 154.027344 311.351562 C 141.484375 312.238281 131.546875 303.308594 130.351562 291.179688 C 129.078125 278.238281 135.628906 266.867188 148.277344 264.554688 C 159.398438 262.519531 169.964844 268.425781 173.527344 279.28125 C 175.515625 285.332031 175.34375 291.953125 172.890625 297.878906 C 169.660156 305.6875 162.699219 310.734375 154.027344 311.351562 "/>
<path fill-rule="nonzero" fill="rgb(98.039246%, 84.313965%, 0%)" fill-opacity="1" d="M 154.535156 307.890625 C 146.472656 308.8125 139.203125 304.855469 135.777344 297.628906 C 133.007812 291.789062 132.910156 284.816406 135.371094 278.816406 C 138.0625 272.257812 144.011719 268.078125 150.96875 267.597656 C 158.820312 267.058594 165.882812 270.890625 169.253906 278.046875 C 172.828125 285.621094 171.964844 294.824219 166.769531 301.328125 C 163.679688 305.191406 159.589844 307.3125 154.535156 307.890625 "/>
<path fill-rule="nonzero" fill="rgb(1.176453%, 0.784302%, 0.392151%)" fill-opacity="1" d="M 164.417969 184.109375 C 166.425781 191.84375 173.519531 196.550781 181.292969 196.59375 C 186.039062 196.617188 190.3125 195.242188 193.699219 191.894531 L 219.414062 191.867188 C 220.179688 191.863281 220.867188 192.160156 221.234375 192.726562 C 221.515625 193.167969 221.636719 193.914062 221.230469 194.785156 C 216.695312 204.492188 208.773438 212.25 198.679688 216.261719 C 175.75 225.378906 148.328125 215.570312 140.238281 191.785156 C 136.136719 179.722656 137.210938 166.507812 143.117188 155.261719 C 147.429688 147.050781 154.117188 141.175781 162.496094 137.378906 C 170.160156 133.90625 178.390625 133.019531 186.800781 133.800781 C 193.679688 134.441406 199.8125 136.59375 205.628906 140.15625 C 220.117188 149.039062 225.878906 165.164062 224.757812 181.839844 C 224.671875 183.140625 223.933594 184.042969 222.5 184.023438 L 214.902344 183.925781 C 211.996094 183.886719 209.363281 183.945312 206.46875 183.9375 L 176.191406 183.855469 Z M 164.417969 184.109375 "/>
<path fill-rule="nonzero" fill="rgb(0%, 0%, 0%)" fill-opacity="1" d="M 195.101562 195.222656 L 217.226562 195.214844 C 210.203125 208.1875 197.316406 215.761719 182.675781 216.128906 C 171 216.425781 159.789062 212.691406 151.707031 204.21875 C 146.4375 198.699219 143.148438 192.109375 141.917969 184.5625 C 139.152344 167.566406 145.707031 150.011719 161.03125 141.902344 C 175.152344 134.429688 192.117188 135.230469 205.394531 144.003906 C 217.488281 152.691406 221.996094 165.804688 221.304688 180.632812 L 162.085938 180.609375 C 160.992188 180.609375 160.351562 181.292969 160.519531 182.421875 C 162.085938 193.054688 171.492188 200.453125 182.21875 199.921875 C 187.039062 199.683594 191.527344 198.441406 195.101562 195.222656 "/>
<path fill-rule="nonzero" fill="rgb(1.176453%, 1.176453%, 0.392151%)" fill-opacity="1" d="M 200.261719 169.992188 L 162.980469 169.988281 C 162.300781 169.988281 161.789062 169.683594 161.53125 169.339844 C 160.269531 167.65625 164.335938 160.410156 168.296875 157.386719 C 176.125 151.414062 187.296875 151.515625 195.097656 157.550781 C 199.960938 161.316406 203.359375 169.992188 200.261719 169.992188 "/>
<path fill-rule="nonzero" fill="rgb(98.039246%, 84.706116%, 0%)" fill-opacity="1" d="M 197.464844 166.480469 L 165.582031 166.507812 C 168.402344 159.964844 174.519531 156.367188 181.351562 156.390625 C 188.15625 156.292969 194.609375 159.53125 197.464844 166.480469 "/>
<path fill-rule="nonzero" fill="rgb(1.176453%, 0.784302%, 0%)" fill-opacity="1" d="M 106.191406 211.109375 C 102.015625 214.710938 97.320312 217.300781 91.746094 218.597656 C 75.050781 222.484375 58.347656 214.78125 50.09375 199.640625 C 44.535156 189.453125 43.359375 177.515625 45.582031 166.066406 C 47.320312 157.121094 51.566406 149.414062 58.152344 143.246094 C 65.605469 136.273438 75.164062 133.140625 85.367188 133.519531 C 92.535156 133.78125 98.84375 136.015625 104.636719 140.542969 L 104.679688 118.132812 C 104.683594 117.082031 105.457031 116.351562 106.511719 116.390625 L 129.351562 116.382812 C 130.445312 116.382812 131.125 117.097656 131.125 118.265625 L 131.136719 216.207031 C 131.136719 217.371094 130.40625 218.070312 129.351562 218.074219 L 108.34375 218.109375 C 107.25 218.109375 106.539062 217.425781 106.480469 216.355469 Z M 106.191406 211.109375 "/>
<path fill-rule="nonzero" fill="rgb(0%, 0%, 0%)" fill-opacity="1" d="M 107.285156 204.8125 C 97.378906 217.542969 79.09375 219.339844 65.957031 211.433594 C 47.65625 200.421875 43.542969 175.191406 52.300781 156.714844 C 59.625 141.269531 76.851562 133.351562 93.214844 138.246094 C 102.441406 141.003906 104.710938 146.742188 106.683594 146.652344 C 107.253906 146.628906 107.914062 146.3125 108.125 145.507812 L 108.15625 119.8125 L 127.714844 119.816406 L 127.726562 214.660156 L 109.910156 214.710938 L 109.777344 205.789062 C 109.765625 205.082031 109.335938 204.570312 108.9375 204.40625 C 108.496094 204.222656 107.679688 204.304688 107.285156 204.8125 "/>
<path fill-rule="nonzero" fill="rgb(1.176453%, 0.784302%, 0.392151%)" fill-opacity="1" d="M 102.683594 191.316406 C 94.964844 200.070312 81.191406 200.011719 73.246094 191.796875 C 65.074219 183.347656 65.4375 167.320312 74.839844 159.4375 C 81.921875 153.496094 92.433594 153.210938 99.820312 158.722656 C 109.765625 166.140625 110.699219 182.226562 102.683594 191.316406 "/>
<path fill-rule="nonzero" fill="rgb(98.039246%, 84.313965%, 0%)" fill-opacity="1" d="M 89.265625 194.40625 C 81.347656 195.078125 74.472656 190.644531 72.027344 183.324219 C 68.480469 172.71875 73.476562 160.476562 84.417969 158.515625 C 90.125 157.492188 95.625 158.863281 99.660156 163.148438 C 106.257812 170.152344 106.269531 181.5 100.207031 188.863281 C 97.425781 192.238281 93.839844 194.023438 89.265625 194.40625 "/>
<path fill-rule="nonzero" fill="rgb(0%, 0%, 0%)" fill-opacity="1" d="M 342.546875 184.007812 C 344.710938 191.371094 351.039062 195.953125 358.335938 196.355469 L 363.515625 196.789062 L 363.554688 218.976562 C 348.5625 221.066406 333.097656 214.960938 324.050781 202.648438 C 311.703125 185.835938 313.683594 159.703125 329.09375 145.175781 C 342.851562 132.203125 365.609375 129.914062 381.824219 138.859375 C 391.035156 143.941406 397.75 152.007812 400.816406 162.128906 C 402.90625 169.039062 403.777344 176.253906 402.667969 183.335938 C 402.285156 184.472656 400.078125 183.855469 399.285156 183.859375 L 387.109375 183.894531 L 363.386719 183.875 Z M 342.546875 184.007812 "/>
<path fill-rule="nonzero" fill="rgb(0%, 0%, 0%)" fill-opacity="1" d="M 360.199219 199.699219 L 360.265625 215.972656 C 348.734375 216.546875 337.503906 212.433594 329.585938 204.007812 C 320.175781 194 317.589844 179.582031 320.789062 166.296875 C 326.65625 141.9375 352.664062 131.316406 375.5 139.664062 C 392.832031 146.296875 400.316406 162.261719 399.761719 180.613281 L 340.203125 180.613281 C 339.164062 180.613281 338.484375 181.355469 338.652344 182.390625 C 340.363281 192.84375 349.199219 200.136719 360.199219 199.699219 "/>
<path fill-rule="nonzero" fill="rgb(0%, 0%, 0%)" fill-opacity="1" d="M 378.199219 169.976562 L 341.097656 169.980469 C 340.277344 169.980469 339.804688 169.535156 339.535156 168.984375 C 338.6875 167.25 344.664062 152.347656 360.820312 152.972656 C 369.992188 153.328125 377.714844 159.058594 379.746094 168.1875 C 379.964844 169.175781 379.257812 169.976562 378.199219 169.976562 "/>
<path fill-rule="nonzero" fill="rgb(98.039246%, 84.313965%, 0%)" fill-opacity="1" d="M 375.46875 166.523438 L 343.765625 166.492188 C 346.183594 161.28125 350.441406 157.78125 355.832031 156.753906 C 361.53125 155.667969 367.191406 156.882812 371.675781 160.464844 C 373.144531 162.238281 374.601562 163.636719 375.46875 166.523438 "/>
</svg>
